HIERARCHY
ROOT Hips
{
    OFFSET   0.000000   0.000000   0.000000
    CHANNELS 6 Xposition Yposition Zposition Zrotation Xrotation Yrotation
    JOINT Chest
    {
        OFFSET   0.000000   8.007240   0.000000
        CHANNELS 3 Zrotation Xrotation Yrotation
        JOINT Chest2
        {
            OFFSET   0.000000  22.077100   0.000000
            CHANNELS 3 Zrotation Xrotation Yrotation
            JOINT Neck
            {
                OFFSET   0.000000  23.254800   0.000000
                CHANNELS 3 Zrotation Xrotation Yrotation
                JOINT Head
                {
                    OFFSET   0.000000  14.370000   1.956600
                    CHANNELS 3 Zrotation Xrotation Yrotation
                    End Site
                    {
                        OFFSET   0.000000  19.566000   0.000000
                    }
                }
            }
            JOINT LeftCollar
            {
                OFFSET   3.911900  19.017000  -0.467064
                CHANNELS 3 Zrotation Xrotation Yrotation
                JOINT LeftShoulder
                {
                    OFFSET  10.383700   0.000000   0.000000
                    CHANNELS 3 Zrotation Xrotation Yrotation
                    JOINT LeftElbow
                    {
                        OFFSET  26.662100   0.001476   0.000517
                        CHANNELS 3 Zrotation Xrotation Yrotation
                        JOINT LeftWrist
                        {
                            OFFSET  28.869000  -0.000025  -0.000106
                            CHANNELS 3 Zrotation Xrotation Yrotation
                            JOINT LeftFinger0
                            {
                                OFFSET   2.044660  -2.323460   3.252850
                                CHANNELS 3 Zrotation Xrotation Yrotation
                                JOINT LeftFinger01
                                {
                                    OFFSET   3.088130   0.000000   0.000000
                                    CHANNELS 3 Zrotation Xrotation Yrotation
                                    JOINT LeftFinger02
                                    {
                                        OFFSET   2.639460   0.000000   0.000000
                                        CHANNELS 3 Zrotation Xrotation Yrotation
                                        End Site
                                        {
                                            OFFSET   2.582190   0.000000   0.000000
                                        }
                                    }
                                }
                            }
                            JOINT LeftFinger1
                            {
                                OFFSET   8.364480   0.000000   3.252850
                                CHANNELS 3 Zrotation Xrotation Yrotation
                                JOINT LeftFinger11
                                {
                                    OFFSET   4.646930   0.000000   0.000000
                                    CHANNELS 3 Zrotation Xrotation Yrotation
                                    JOINT LeftFinger12
                                    {
                                        OFFSET   2.323460   0.000000   0.000000
                                        CHANNELS 3 Zrotation Xrotation Yrotation
                                        End Site
                                        {
                                            OFFSET   2.273050   0.000000   0.000000
                                        }
                                    }
                                }
                            }
                            JOINT LeftFinger2
                            {
                                OFFSET   8.364490   0.000015   1.078090
                                CHANNELS 3 Zrotation Xrotation Yrotation
                                JOINT LeftFinger21
                                {
                                    OFFSET   5.111620   0.000000   0.000000
                                    CHANNELS 3 Zrotation Xrotation Yrotation
                                    JOINT LeftFinger22
                                    {
                                        OFFSET   2.788160   0.000016   0.000000
                                        CHANNELS 3 Zrotation Xrotation Yrotation
                                        End Site
                                        {
                                            OFFSET   2.727660   0.000000   0.000000
                                        }
                                    }
                                }
                            }
                            JOINT LeftFinger3
                            {
                                OFFSET   7.899780   0.000017  -1.078090
                                CHANNELS 3 Zrotation Xrotation Yrotation
                                JOINT LeftFinger31
                                {
                                    OFFSET   4.646930   0.000000   0.000000
                                    CHANNELS 3 Zrotation Xrotation Yrotation
                                    JOINT LeftFinger32
                                    {
                                        OFFSET   2.323470   0.000000   0.000000
                                        CHANNELS 3 Zrotation Xrotation Yrotation
                                        End Site
                                        {
                                            OFFSET   2.273050   0.000000   0.000000
                                        }
                                    }
                                }
                            }
                            JOINT LeftFinger4
                            {
                                OFFSET   7.435090   0.000000  -3.252850
                                CHANNELS 3 Zrotation Xrotation Yrotation
                                JOINT LeftFinger41
                                {
                                    OFFSET   3.717550   0.000000   0.000000
                                    CHANNELS 3 Zrotation Xrotation Yrotation
                                    JOINT LeftFinger42
                                    {
                                        OFFSET   1.858770   0.000000   0.000000
                                        CHANNELS 3 Zrotation Xrotation Yrotation
                                        End Site
                                        {
                                            OFFSET   1.818440   0.000000   0.000000
                                        }
                                    }
                                }
                            }
                        }
                    }
                }
            }
            JOINT RightCollar
            {
                OFFSET  -3.911900  19.017000  -0.467063
                CHANNELS 3 Zrotation Xrotation Yrotation
                JOINT RightShoulder
                {
                    OFFSET -10.383700   0.000019   0.000000
                    CHANNELS 3 Zrotation Xrotation Yrotation
                    JOINT RightElbow
                    {
                        OFFSET -26.662100   0.001175   0.000102
                        CHANNELS 3 Zrotation Xrotation Yrotation
                        JOINT RightWrist
                        {
                            OFFSET -28.869000   0.000016  -0.000079
                            CHANNELS 3 Zrotation Xrotation Yrotation
                            JOINT RightFinger0
                            {
                                OFFSET  -2.044660  -2.323490   3.252850
                                CHANNELS 3 Zrotation Xrotation Yrotation
                                JOINT RightFinger01
                                {
                                    OFFSET  -3.088140   0.000000   0.000000
                                    CHANNELS 3 Zrotation Xrotation Yrotation
                                    JOINT RightFinger02
                                    {
                                        OFFSET  -2.639460   0.000000   0.000000
                                        CHANNELS 3 Zrotation Xrotation Yrotation
                                        End Site
                                        {
                                            OFFSET  -2.582190   0.000000   0.000000
                                        }
                                    }
                                }
                            }
                            JOINT RightFinger1
                            {
                                OFFSET  -8.364480   0.000000   3.252850
                                CHANNELS 3 Zrotation Xrotation Yrotation
                                JOINT RightFinger11
                                {
                                    OFFSET  -4.646930   0.000000   0.000000
                                    CHANNELS 3 Zrotation Xrotation Yrotation
                                    JOINT RightFinger12
                                    {
                                        OFFSET  -2.323470   0.000000   0.000000
                                        CHANNELS 3 Zrotation Xrotation Yrotation
                                        End Site
                                        {
                                            OFFSET  -2.273050   0.000000   0.000000
                                        }
                                    }
                                }
                            }
                            JOINT RightFinger2
                            {
                                OFFSET  -8.364480   0.000000   1.078090
                                CHANNELS 3 Zrotation Xrotation Yrotation
                                JOINT RightFinger21
                                {
                                    OFFSET  -5.111620   0.000000   0.000000
                                    CHANNELS 3 Zrotation Xrotation Yrotation
                                    JOINT RightFinger22
                                    {
                                        OFFSET  -2.788160   0.000000   0.000000
                                        CHANNELS 3 Zrotation Xrotation Yrotation
                                        End Site
                                        {
                                            OFFSET  -2.727660   0.000000   0.000000
                                        }
                                    }
                                }
                            }
                            JOINT RightFinger3
                            {
                                OFFSET  -7.899780   0.000000  -1.078090
                                CHANNELS 3 Zrotation Xrotation Yrotation
                                JOINT RightFinger31
                                {
                                    OFFSET  -4.646930   0.000000   0.000000
                                    CHANNELS 3 Zrotation Xrotation Yrotation
                                    JOINT RightFinger32
                                    {
                                        OFFSET  -2.323470   0.000000   0.000000
                                        CHANNELS 3 Zrotation Xrotation Yrotation
                                        End Site
                                        {
                                            OFFSET  -2.273050   0.000000   0.000000
                                        }
                                    }
                                }
                            }
                            JOINT RightFinger4
                            {
                                OFFSET  -7.435090   0.000000  -3.252850
                                CHANNELS 3 Zrotation Xrotation Yrotation
                                JOINT RightFinger41
                                {
                                    OFFSET  -3.717550   0.000000   0.000000
                                    CHANNELS 3 Zrotation Xrotation Yrotation
                                    JOINT RightFinger42
                                    {
                                        OFFSET  -1.858770   0.000000   0.000000
                                        CHANNELS 3 Zrotation Xrotation Yrotation
                                        End Site
                                        {
                                            OFFSET  -1.818440   0.000000   0.000000
                                        }
                                    }
                                }
                            }
                        }
                    }
                }
            }
        }
    }
    JOINT LeftHip
    {
        OFFSET   9.783040   0.000000   0.000000
        CHANNELS 3 Zrotation Xrotation Yrotation
        JOINT LeftKnee
        {
            OFFSET   0.000032 -41.789100  -0.002222
            CHANNELS 3 Zrotation Xrotation Yrotation
            JOINT LeftAnkle
            {
                OFFSET   0.000087 -41.133200  -0.000135
                CHANNELS 3 Zrotation Xrotation Yrotation
                JOINT LeftToe
                {
                    OFFSET   0.000000  -6.358960  14.674500
                    CHANNELS 3 Zrotation Xrotation Yrotation
                    End Site
                    {
                        OFFSET   0.000000   0.000000   3.913200
                    }
                }
            }
        }
    }
    JOINT RightHip
    {
        OFFSET  -9.783040   0.000000   0.000000
        CHANNELS 3 Zrotation Xrotation Yrotation
        JOINT RightKnee
        {
            OFFSET   0.000047 -41.789100  -0.000896
            CHANNELS 3 Zrotation Xrotation Yrotation
            JOINT RightAnkle
            {
                OFFSET  -0.000117 -41.133300  -0.000248
                CHANNELS 3 Zrotation Xrotation Yrotation
                JOINT RightToe
                {
                    OFFSET   0.000000  -6.358970  14.674500
                    CHANNELS 3 Zrotation Xrotation Yrotation
                    End Site
                    {
                        OFFSET   0.000000   0.000000   3.913200
                    }
                }
            }
        }
    }
}
MOTION
Frames: 4
Frame Time:   0.016667
 -1.018820  89.476700   0.983787  -0.643816  -3.988860   1.235950   1.175530   3.850510  -0.706412   2.406820   7.685340  -1.497130  -1.979020  -0.690536  -0.029505  -3.270030  -1.394830   8.389230  -7.232970  -0.200634  10.967600 -78.742800   9.330230   1.500980   0.719598   6.343980 -17.686200   7.784710  -5.383730  -0.869910  38.368700  30.929900 -49.533900 -33.116800   0.001900   0.001259 -11.558400   0.001051  -0.001442 -30.126200   0.038344  -0.066048 -24.648700   0.002175   0.000312 -17.254100  -0.010902   0.013044 -28.465500  -3.924810   7.189470 -39.374800  -0.000414   0.001883 -26.223600  -0.001615  -0.000108 -26.971900  -3.730000   7.299180 -27.854500   0.001502   0.001998 -18.551000  -0.005425   0.002263 -26.151200  -4.761930   9.589510 -39.827900  -0.000435   0.001168 -26.525400  -0.001534   0.003964   7.921930   2.348550  11.766600  69.395300  -1.152950  -3.728450   2.876280  -2.230510  19.883000 -16.172800  -1.037930   4.402250 -41.012500  44.315000  84.541000  34.842500  -0.005755  -0.001011  12.421300  -0.005509  -0.000939  34.594500   1.690080   2.448370  28.334400  -0.005831   0.005217  19.834100  -0.007645   0.000638  28.700400  -1.008380  -1.840770  39.450500   0.001080  -0.000092  26.274000   0.000947   0.006720  28.264400  -5.046680  -9.293210  37.850600  -0.020673  -0.000877  25.208500  -0.015189   0.000681  45.151600  -7.538160  -7.441350  68.462900  -0.023479   0.006141  45.596300  -0.010275   0.014776   2.723780   6.121940   0.646990  -0.153002   1.571810  14.587200  -3.004300  -3.491450  -0.419162   0.000000   0.000000   0.000000  -0.378157   6.710630  -4.802870   1.267350   0.863642 -11.214900  -0.581895  -3.165430   1.247650   0.000000   0.000000   0.000000
 -1.012160  89.476600   0.989730  -0.642718  -4.000720   1.248020   1.175440   3.866050  -0.695136   2.406150   7.716690  -1.474860  -1.978990  -0.695932  -0.029524  -3.262130  -1.405880   8.341440  -7.226090  -0.233994  10.937300 -78.756800   9.326040   1.498850   0.722638   6.333340 -17.685800   7.804410  -5.394980  -0.856735  38.354400  30.910400 -49.507100 -33.121800   0.001891   0.001276 -11.560900   0.001050  -0.001452 -30.132700   0.029431  -0.050689 -24.654000   0.002177   0.000312 -17.257800  -0.010904   0.013047 -28.465500  -3.924810   7.189440 -39.392600  -0.000414   0.001880 -26.235500  -0.001616  -0.000110 -26.972000  -3.730000   7.299160 -27.867000   0.001503   0.001996 -18.559400  -0.005430   0.002263 -26.159600  -4.761930   9.589510 -39.839600  -0.000430   0.001164 -26.533200  -0.001534   0.003962   7.940360   2.237420  11.738300  69.458900  -1.052870  -3.769120   2.863400  -2.313890  19.950800 -16.028800  -1.093420   4.138280 -41.445700  44.490900  85.115000  35.143900  -0.005754  -0.001033  12.572000  -0.005507  -0.000952  34.745600   1.616450   2.326890  28.455900  -0.005827   0.005224  19.919100  -0.007635   0.000611  28.692100  -1.114290  -2.035330  38.965000  -0.003142  -0.000194  25.950600  -0.002377   0.006701  28.133200  -5.002780  -9.267140  38.691400  -0.020673  -0.000927  25.768500  -0.015190   0.000681  46.981900  -7.752640  -7.176800  71.201500  -0.042313   0.021634  47.420200  -0.007070   0.032032   2.723670   6.137420   0.647051  -0.152349   1.570000  14.566900  -3.004120  -3.497530  -0.413765  -0.000000   0.000000  -0.000000  -0.381918   6.786130  -4.797310   1.272860   0.803956 -11.231100  -0.581928  -3.171350   1.247660   0.000000   0.000000   0.000000
 -1.000800  89.476400   1.000420  -0.641263  -4.028580   1.260110   1.176370   3.897260  -0.673572   2.407070   7.779570  -1.432390  -1.978970  -0.709754  -0.029560  -3.252580  -1.434030   8.261230  -7.215640  -0.287053  10.870600 -78.775800   9.318000   1.491490   0.725518   6.314790 -17.685200   7.831630  -5.420670  -0.836236  38.340200  30.890800 -49.480300 -33.134900   0.001864   0.001292 -11.567500   0.001045  -0.001472 -30.146100   0.014851  -0.025570 -24.665000   0.002182   0.000310 -17.265500  -0.010906   0.013059 -28.465500  -3.924820   7.189390 -39.418300  -0.000413   0.001872 -26.252600  -0.001619  -0.000116 -26.972100  -3.730010   7.299120 -27.884700   0.001506   0.001991 -18.571200  -0.005443   0.002262 -26.167900  -4.761930   9.589510 -39.851300  -0.000418   0.001155 -26.541000  -0.001534   0.003957   7.961820   2.060050  11.656300  69.570100  -0.844825  -3.809700   2.795170  -2.472070  20.093100 -15.743100  -1.480210   3.646190 -42.207700  44.840800  86.136200  35.664000  -0.005747  -0.001073  12.832000  -0.005506  -0.000999  35.069900   1.507920   2.142380  28.718300  -0.005822   0.005238  20.102900  -0.007624   0.000574  28.676700  -1.220160  -2.229900  38.479400  -0.010963  -0.000364  25.627300  -0.008149   0.006668  28.008300  -4.941930  -9.199580  40.199400  -0.020671  -0.001011  26.772800  -0.015190   0.000682  50.223100  -8.091750  -6.685600  76.041100  -0.061148   0.045711  50.643400   0.000743   0.050523   2.723330   6.172770   0.647177  -0.151520   1.568230  14.540100  -3.003550  -3.508550  -0.401572  -0.000000   0.000000  -0.000000  -0.388329   6.893790  -4.786620   1.278430   0.744257 -11.254900  -0.581872  -3.181340   1.247680  -0.000000   0.000000   0.000000
 -0.991174  89.476300   1.011260  -0.642576  -4.067870   1.252260   1.178480   3.932720  -0.649745   2.410240   7.850950  -1.385540  -1.979920  -0.731623  -0.029594  -3.251560  -1.478370   8.192820  -7.211360  -0.323782  10.781700 -78.781900   9.306820   1.477350   0.722632   6.299040 -17.677200   7.841810  -5.467140  -0.822164  38.346500  30.925900 -49.521900 -33.157400   0.001818   0.001250 -11.578700   0.001025  -0.001493 -30.164000   0.002749  -0.004242 -24.679600   0.002190   0.000303 -17.275900  -0.010908   0.013079 -28.465500  -3.924830   7.189380 -39.431800  -0.000413   0.001858 -26.261600  -0.001625  -0.000126 -26.972300  -3.730010   7.299070 -27.892900   0.001511   0.001982 -18.576700  -0.005466   0.002260 -26.167500  -4.762690   9.593450 -39.851200  -0.000399   0.001140 -26.540900  -0.001533   0.003951   7.955510   1.935740  11.503800  69.677700  -0.569956  -3.745930   2.640500  -2.610890  20.238100 -15.412400  -2.635860   3.129190 -42.962200  45.255000  87.174700  36.075500  -0.005724  -0.001126  13.036800  -0.005511  -0.001092  35.434900   1.449700   2.034100  29.015200  -0.007936   0.005250  20.313800  -0.007659   0.000557  28.572200  -1.219100  -2.229710  38.899400  -0.021138  -0.000538  25.907000  -0.014621   0.006637  28.120000  -4.917480  -9.101180  41.671100  -0.018958  -0.001093  27.753000  -0.015791   0.002333  53.224600  -8.321230  -6.180300  80.517700  -0.057406   0.064554  53.619000   0.015788   0.051963   2.721620   6.221310   0.647361  -0.151236   1.568510  14.532500  -3.002180  -3.519070  -0.386000  -0.000000   0.000000   0.000000  -0.393850   6.933520  -4.773660   1.277220   0.765911 -11.269200  -0.579238  -3.190220   1.254140   0.000000   0.000000   0.000000
